<svg width="1440" height="220" viewBox="0 0 1440 220" fill="none" xmlns="http://www.w3.org/2000/svg">
<path fill-rule="evenodd" clip-rule="evenodd" d="M1440 196.134L1380 186.794C1320 177.454 1200 158.775 1080 154.105C960 149.435 840 158.775 720 177.454C600 196.134 480 224.153 360 219.483C240 214.813 120 177.454 59.9999 158.775L-5.72205e-05 140.096V-7.11239e-06H59.9999C120 -7.11239e-06 240 -7.11239e-06 360 -7.11239e-06C480 -7.11239e-06 600 -7.11239e-06 720 -7.11239e-06C840 -7.11239e-06 960 -7.11239e-06 1080 -7.11239e-06C1200 -7.11239e-06 1320 -7.11239e-06 1380 -7.11238e-06H1440V196.134Z" fill="#627C6E"/>
</svg>
