<svg width="1440" height="253" viewBox="0 0 1440 253" fill="none" xmlns="http://www.w3.org/2000/svg">
<path fill-rule="evenodd" clip-rule="evenodd" d="M1440 225.409L1380 214.675C1320 203.941 1200 182.474 1080 177.107C960 171.74 840 182.474 720 203.941C600 225.409 480 257.61 360 252.243C240 246.876 120 203.941 59.9999 182.474L-5.72205e-05 161.006V1.47622e-05H59.9999C120 1.47622e-05 240 1.47622e-05 360 1.47622e-05C480 1.47622e-05 600 1.47622e-05 720 1.47622e-05C840 1.47622e-05 960 1.47622e-05 1080 1.47622e-05C1200 1.47622e-05 1320 1.47622e-05 1380 1.47622e-05H1440V225.409Z" fill="#829A8E"/>
</svg>
